<svg width="56" height="90" viewBox="0 0 56 80" fill="none" xmlns="http://www.w3.org/2000/svg"><circle cx="28.191" cy="28.301" r="15.935" fill="#F0FFCA" stroke="#B5FF00" stroke-width="2"/><mask id="a" fill="#fff"><path fill-rule="evenodd" clip-rule="evenodd" d="M45.043 69.451a.824.824 0 0 0-.797.365l-4.799 7.28-9.857-21.532c.962-.367 1.824-1.054 2.666-1.726.836-.668 1.626-1.298 2.38-1.499.264-.07.568-.105.928-.105.617 0 1.288.099 1.997.204.732.11 1.489.221 2.216.221.878 0 1.594-.168 2.19-.513 1.032-.596 1.617-1.641 2.094-2.76l9.633 21.19-8.651-1.125zM28.19 54.181c-.986 0-1.98-.795-3.035-1.636-.931-.744-1.895-1.513-2.983-1.804a5.211 5.211 0 0 0-1.356-.161c-.74 0-1.502.113-2.24.222-.703.105-1.368.203-1.973.203-.58 0-1.025-.095-1.362-.29-.822-.476-1.281-1.646-1.768-2.885-.443-1.128-.9-2.294-1.717-3.11-.816-.816-1.983-1.275-3.11-1.717-1.24-.487-2.41-.947-2.885-1.768-.463-.8-.28-2.032-.087-3.336.179-1.209.364-2.46.061-3.595-.291-1.088-1.06-2.052-1.804-2.984-.841-1.053-1.636-2.049-1.636-3.034 0-.986.795-1.98 1.636-3.034.744-.933 1.513-1.896 1.804-2.985.303-1.134.118-2.385-.061-3.595-.194-1.303-.376-2.535.087-3.335.475-.822 1.645-1.281 2.884-1.768 1.128-.443 2.295-.9 3.111-1.717.816-.817 1.274-1.983 1.717-3.11.487-1.24.946-2.41 1.768-2.885.337-.196.783-.29 1.362-.29.605 0 1.27.098 1.973.202.738.11 1.5.223 2.24.223a5.2 5.2 0 0 0 1.356-.161c1.088-.291 2.052-1.06 2.983-1.804 1.054-.841 2.05-1.636 3.035-1.636.985 0 1.98.795 3.034 1.636.933.744 1.896 1.513 2.984 1.804.406.108.85.16 1.356.16.74 0 1.502-.112 2.24-.222.703-.104 1.368-.202 1.973-.202.58 0 1.025.094 1.362.29.822.475 1.281 1.645 1.768 2.884.443 1.128.9 2.295 1.717 3.11.817.817 1.983 1.275 3.11 1.718 1.24.486 2.41.946 2.885 1.768.463.8.28 2.032.088 3.335-.18 1.21-.365 2.46-.062 3.595.291 1.089 1.06 2.052 1.804 2.985.841 1.053 1.636 2.048 1.636 3.034 0 .985-.795 1.98-1.636 3.034-.744.932-1.513 1.896-1.804 2.984-.303 1.136-.118 2.386.062 3.596.193 1.303.375 2.535-.088 3.335-.475.822-1.645 1.281-2.885 1.768-1.127.443-2.294.901-3.11 1.717-.816.816-1.274 1.983-1.717 3.11-.487 1.24-.946 2.41-1.768 2.885-.337.195-.783.29-1.362.29-.605 0-1.27-.098-1.973-.203-.738-.11-1.5-.222-2.24-.222-.506 0-.95.053-1.355.161-1.089.291-2.053 1.06-2.985 1.804-1.053.841-2.049 1.635-3.034 1.635zM16.933 77.094l-4.799-7.28a.823.823 0 0 0-.797-.364l-8.646 1.124 9.663-21.106c.471 1.087 1.052 2.095 2.058 2.677.597.346 1.313.513 2.191.513.727 0 1.484-.112 2.216-.22.71-.106 1.38-.205 1.997-.205.36 0 .664.034.928.105.754.201 1.544.831 2.38 1.499.842.672 1.704 1.36 2.666 1.726l-9.857 21.531zm38.882-5.85L44.922 47.283c.25-.556.525-1.046.872-1.392.572-.573 1.53-.95 2.545-1.348 1.449-.569 2.947-1.157 3.712-2.479.752-1.3.518-2.879.291-4.406-.161-1.09-.314-2.121-.099-2.926.201-.754.832-1.543 1.499-2.38.982-1.229 1.996-2.5 1.996-4.065 0-1.565-1.014-2.836-1.996-4.066-.667-.836-1.297-1.626-1.499-2.38-.215-.804-.062-1.834.1-2.925.226-1.527.46-3.106-.292-4.406-.765-1.322-2.263-1.91-3.712-2.48-1.014-.398-1.973-.774-2.545-1.347-.573-.572-.95-1.53-1.348-2.545-.569-1.449-1.157-2.947-2.478-3.712-.597-.345-1.313-.512-2.19-.512-.728 0-1.485.112-2.217.22-.71.106-1.38.205-1.997.205-.36 0-.664-.034-.929-.105-.753-.201-1.543-.832-2.379-1.499-1.23-.981-2.501-1.997-4.066-1.997s-2.836 1.016-4.066 1.997c-.836.667-1.626 1.298-2.38 1.499-.264.07-.568.105-.928.105-.617 0-1.287-.1-1.997-.205-.732-.108-1.489-.22-2.216-.22-.878 0-1.594.167-2.19.512-1.322.765-1.91 2.263-2.48 3.712-.398 1.014-.774 1.973-1.346 2.545-.573.573-1.531.95-2.546 1.348-1.449.569-2.947 1.157-3.712 2.478-.752 1.3-.518 2.88-.292 4.407.162 1.09.315 2.121.1 2.925-.201.754-.832 1.544-1.499 2.38C1.657 25.45.642 26.72.642 28.286s1.015 2.836 1.996 4.066c.667.836 1.298 1.626 1.5 2.38.214.804.061 1.834-.1 2.925-.227 1.527-.461 3.106.291 4.407.765 1.32 2.263 1.91 3.712 2.478 1.014.399 1.973.775 2.545 1.347.365.365.65.886.911 1.478L.567 71.244a.827.827 0 0 0 .858 1.164l9.613-1.25 5.335 8.093a.827.827 0 0 0 1.443-.11L28.19 56.48l10.374 22.66a.827.827 0 0 0 1.443.111l5.335-8.093 9.613 1.25a.825.825 0 0 0 .86-1.162z"/></mask><path fill-rule="evenodd" clip-rule="evenodd" d="M45.043 69.451a.824.824 0 0 0-.797.365l-4.799 7.28-9.857-21.532c.962-.367 1.824-1.054 2.666-1.726.836-.668 1.626-1.298 2.38-1.499.264-.07.568-.105.928-.105.617 0 1.288.099 1.997.204.732.11 1.489.221 2.216.221.878 0 1.594-.168 2.19-.513 1.032-.596 1.617-1.641 2.094-2.76l9.633 21.19-8.651-1.125zM28.19 54.181c-.986 0-1.98-.795-3.035-1.636-.931-.744-1.895-1.513-2.983-1.804a5.211 5.211 0 0 0-1.356-.161c-.74 0-1.502.113-2.24.222-.703.105-1.368.203-1.973.203-.58 0-1.025-.095-1.362-.29-.822-.476-1.281-1.646-1.768-2.885-.443-1.128-.9-2.294-1.717-3.11-.816-.816-1.983-1.275-3.11-1.717-1.24-.487-2.41-.947-2.885-1.768-.463-.8-.28-2.032-.087-3.336.179-1.209.364-2.46.061-3.595-.291-1.088-1.06-2.052-1.804-2.984-.841-1.053-1.636-2.049-1.636-3.034 0-.986.795-1.98 1.636-3.034.744-.933 1.513-1.896 1.804-2.985.303-1.134.118-2.385-.061-3.595-.194-1.303-.376-2.535.087-3.335.475-.822 1.645-1.281 2.884-1.768 1.128-.443 2.295-.9 3.111-1.717.816-.817 1.274-1.983 1.717-3.11.487-1.24.946-2.41 1.768-2.885.337-.196.783-.29 1.362-.29.605 0 1.27.098 1.973.202.738.11 1.5.223 2.24.223a5.2 5.2 0 0 0 1.356-.161c1.088-.291 2.052-1.06 2.983-1.804 1.054-.841 2.05-1.636 3.035-1.636.985 0 1.98.795 3.034 1.636.933.744 1.896 1.513 2.984 1.804.406.108.85.16 1.356.16.74 0 1.502-.112 2.24-.222.703-.104 1.368-.202 1.973-.202.58 0 1.025.094 1.362.29.822.475 1.281 1.645 1.768 2.884.443 1.128.9 2.295 1.717 3.11.817.817 1.983 1.275 3.11 1.718 1.24.486 2.41.946 2.885 1.768.463.8.28 2.032.088 3.335-.18 1.21-.365 2.46-.062 3.595.291 1.089 1.06 2.052 1.804 2.985.841 1.053 1.636 2.048 1.636 3.034 0 .985-.795 1.98-1.636 3.034-.744.932-1.513 1.896-1.804 2.984-.303 1.136-.118 2.386.062 3.596.193 1.303.375 2.535-.088 3.335-.475.822-1.645 1.281-2.885 1.768-1.127.443-2.294.901-3.11 1.717-.816.816-1.274 1.983-1.717 3.11-.487 1.24-.946 2.41-1.768 2.885-.337.195-.783.29-1.362.29-.605 0-1.27-.098-1.973-.203-.738-.11-1.5-.222-2.24-.222-.506 0-.95.053-1.355.161-1.089.291-2.053 1.06-2.985 1.804-1.053.841-2.049 1.635-3.034 1.635zM16.933 77.094l-4.799-7.28a.823.823 0 0 0-.797-.364l-8.646 1.124 9.663-21.106c.471 1.087 1.052 2.095 2.058 2.677.597.346 1.313.513 2.191.513.727 0 1.484-.112 2.216-.22.71-.106 1.38-.205 1.997-.205.36 0 .664.034.928.105.754.201 1.544.831 2.38 1.499.842.672 1.704 1.36 2.666 1.726l-9.857 21.531zm38.882-5.85L44.922 47.283c.25-.556.525-1.046.872-1.392.572-.573 1.53-.95 2.545-1.348 1.449-.569 2.947-1.157 3.712-2.479.752-1.3.518-2.879.291-4.406-.161-1.09-.314-2.121-.099-2.926.201-.754.832-1.543 1.499-2.38.982-1.229 1.996-2.5 1.996-4.065 0-1.565-1.014-2.836-1.996-4.066-.667-.836-1.297-1.626-1.499-2.38-.215-.804-.062-1.834.1-2.925.226-1.527.46-3.106-.292-4.406-.765-1.322-2.263-1.91-3.712-2.48-1.014-.398-1.973-.774-2.545-1.347-.573-.572-.95-1.53-1.348-2.545-.569-1.449-1.157-2.947-2.478-3.712-.597-.345-1.313-.512-2.19-.512-.728 0-1.485.112-2.217.22-.71.106-1.38.205-1.997.205-.36 0-.664-.034-.929-.105-.753-.201-1.543-.832-2.379-1.499-1.23-.981-2.501-1.997-4.066-1.997s-2.836 1.016-4.066 1.997c-.836.667-1.626 1.298-2.38 1.499-.264.07-.568.105-.928.105-.617 0-1.287-.1-1.997-.205-.732-.108-1.489-.22-2.216-.22-.878 0-1.594.167-2.19.512-1.322.765-1.91 2.263-2.48 3.712-.398 1.014-.774 1.973-1.346 2.545-.573.573-1.531.95-2.546 1.348-1.449.569-2.947 1.157-3.712 2.478-.752 1.3-.518 2.88-.292 4.407.162 1.09.315 2.121.1 2.925-.201.754-.832 1.544-1.499 2.38C1.657 25.45.642 26.72.642 28.286s1.015 2.836 1.996 4.066c.667.836 1.298 1.626 1.5 2.38.214.804.061 1.834-.1 2.925-.227 1.527-.461 3.106.291 4.407.765 1.32 2.263 1.91 3.712 2.478 1.014.399 1.973.775 2.545 1.347.365.365.65.886.911 1.478L.567 71.244a.827.827 0 0 0 .858 1.164l9.613-1.25 5.335 8.093a.827.827 0 0 0 1.443-.11L28.19 56.48l10.374 22.66a.827.827 0 0 0 1.443.111l5.335-8.093 9.613 1.25a.825.825 0 0 0 .86-1.162z" fill="#24E28B" stroke="#24E28B" stroke-width="4" mask="url(#a)"/><path fill-rule="evenodd" clip-rule="evenodd" d="M45.04 69.451a.824.824 0 0 0-.797.365l-4.799 7.28-9.857-21.532c.962-.367 1.824-1.054 2.667-1.726.835-.668 1.625-1.298 2.379-1.499.264-.07.568-.105.929-.105.616 0 1.287.1 1.997.204.732.11 1.488.221 2.215.221.878 0 1.595-.168 2.19-.513 1.033-.596 1.617-1.641 2.095-2.76l9.632 21.19-8.65-1.125zm-28.11 7.644l-4.798-7.28a.823.823 0 0 0-.798-.364l-8.646 1.124 9.663-21.106c.471 1.087 1.052 2.095 2.059 2.677.596.346 1.313.513 2.19.513.727 0 1.484-.112 2.216-.22.71-.106 1.38-.205 1.997-.205.36 0 .664.034.929.105.754.201 1.543.831 2.38 1.499.841.672 1.703 1.36 2.666 1.726L16.93 77.095z" fill="#C9FFE6"/><mask id="b" fill="#fff"><path fill-rule="evenodd" clip-rule="evenodd" d="M38.751 22.37a.827.827 0 0 0-1.164-.113L24.15 33.323l-5.26-6.011a.827.827 0 1 0-1.245 1.089l5.788 6.615a.825.825 0 0 0 1.149.094l14.057-11.577a.827.827 0 0 0 .112-1.164z"/></mask><path fill-rule="evenodd" clip-rule="evenodd" d="M38.751 22.37a.827.827 0 0 0-1.164-.113L24.15 33.323l-5.26-6.011a.827.827 0 1 0-1.245 1.089l5.788 6.615a.825.825 0 0 0 1.149.094l14.057-11.577a.827.827 0 0 0 .112-1.164z" fill="#B5FF00"/><path d="M38.751 22.37l-1.544 1.27 1.544-1.27zm-1.164-.113l-1.27-1.545h-.001l1.271 1.545zM24.15 33.323l-1.505 1.317 1.278 1.461 1.498-1.234-1.271-1.544zm-5.26-6.011l1.505-1.317-1.505 1.317zM17.645 28.4l-1.505 1.317 1.505-1.317zm5.788 6.615l-1.505 1.317 1.505-1.317zm1.149.094l1.27 1.544h.001l-1.271-1.544zm14.057-11.577l1.271 1.544-1.271-1.544zm1.656-2.435a2.827 2.827 0 0 0-3.979-.386l2.542 3.089c-.5.411-1.238.34-1.65-.16l3.087-2.543zm-3.979-.385L22.878 31.779l2.543 3.088L38.86 23.8l-2.543-3.087zM25.655 32.006l-5.26-6.011-3.01 2.634 5.26 6.011 3.01-2.634zm-5.26-6.011a2.827 2.827 0 0 0-3.99-.266l2.635 3.01a1.173 1.173 0 0 1-1.655-.11l3.01-2.634zm-3.99-.266a2.827 2.827 0 0 0-.265 3.989l3.01-2.634a1.173 1.173 0 0 1-.11 1.655l-2.634-3.01zm-.265 3.989l5.788 6.615 3.01-2.634-5.788-6.615-3.01 2.634zm5.788 6.615a2.825 2.825 0 0 0 2.128.966v-4c.322 0 .65.135.882.4l-3.01 2.634zm2.128.966c.632 0 1.272-.213 1.796-.645l-2.541-3.088a1.17 1.17 0 0 1 .745-.267v4zm1.797-.645L39.91 25.077l-2.543-3.088L23.31 33.566l2.543 3.088zM39.91 25.077a2.827 2.827 0 0 0 .385-3.98l-3.087 2.544c-.412-.5-.34-1.24.16-1.651l2.542 3.087z" fill="#B5FF00" mask="url(#b)"/></svg>