<svg width="52" height="76" viewBox="0 0 52 76" fill="none" xmlns="http://www.w3.org/2000/svg"><path fill-rule="evenodd" clip-rule="evenodd" d="M5.467 71.391h2.51v-1.879h-2.51v1.88zm6.286-5.022h2.518v-1.88h-2.518v1.88zm5.035 7.534h2.518v-1.88h-2.518v1.88zm10.063-3.767h2.517v-1.88h-2.517v1.88zm5.035 2.511h2.518v-1.879h-2.518v1.88zm2.518-7.525h2.517v-1.888h-2.517v1.888zm5.027 5.014h2.517v-1.88h-2.517v1.88zm9.124 2.511v2.823H2.637v-3.767c0-5.707 4.653-10.349 10.375-10.349h7.865v.312c0 2.598 2.119 4.703 4.715 4.703 2.604 0 4.723-2.105 4.723-4.703v-.311h7.857c5.409 0 9.862 4.139 10.34 9.413h-1.528v1.88h1.571z" fill="#9FEDD9"/><path fill-rule="evenodd" clip-rule="evenodd" d="M15.66 52.288a8.51 8.51 0 0 1-4.211-7.318V31.477l-1.884.282-.009 3.867.009 1.879v7.465a10.38 10.38 0 0 0 5.14 8.937l5.643 3.29c.173.105.347.2.53.286v1.984h-7.866c-6.764 0-12.268 5.49-12.268 12.236v3.767h1.893v-3.767c0-5.707 4.653-10.348 10.375-10.348h7.865v.311c0 2.598 2.12 4.703 4.715 4.703 2.605 0 4.722-2.105 4.722-4.703v-.311h7.858c5.408 0 9.862 4.14 10.34 9.413h-1.528v1.88h1.571v2.823h1.884v-3.768c0-6.746-5.496-12.236-12.267-12.236h-7.858v-1.992c.165-.087.33-.173.496-.269l5.669-3.3a10.365 10.365 0 0 0 5.157-8.945V32.198l-1.884-.764v13.527a8.48 8.48 0 0 1-4.22 7.318l-5.678 3.3a8.489 8.489 0 0 1-7.545.494 7.902 7.902 0 0 1-1.015-.503l-5.635-3.282zm9.932 12.202a2.828 2.828 0 0 0 2.83-2.824V58.22c-.93.26-1.884.39-2.84.39-.954 0-1.9-.13-2.82-.399v3.455a2.833 2.833 0 0 0 2.83 2.824z" fill="#24E28B"/><path fill-rule="evenodd" clip-rule="evenodd" d="M39.43 69.98h2.518V68.1H39.43v1.88zm-5.026-5.014h2.518v-1.888h-2.518v1.888zm1.493-31.93l-5.035-1.256-.46 1.82 5.035 1.255.46-1.819zm-4.01 39.456h2.517v-1.88h-2.517v1.88zm-2.293-25.054l2.718-1.36-.85-1.68-2.32 1.152H22.05l-2.317-1.17-.852 1.68 2.717 1.378h7.996zM26.85 69.98h2.518V68.1h-2.517v1.88zm.947-38.546h-1.884v9.102h-2.839v1.879h4.723v-10.98zm-7.458.346l-5.036 1.256.46 1.819 5.036-1.256-.46-1.818zm-3.55 41.967h2.518v-1.88H16.79v1.88zm-5.036-7.534h2.517v-1.88h-2.517v1.88zm-6.286 5.023h2.51v-1.88h-2.51v1.88z" fill="#24E28B"/><path fill-rule="evenodd" clip-rule="evenodd" d="M49.06 17.538c.468 2.27-.591 4.677-2.527 5.724a.945.945 0 0 0-.486.71.928.928 0 0 0 .295.806c1.91 1.775 2.492 3.603 1.64 5.17-.824 1.533-2.899 2.434-4.61 2.01-1.91-.477-2.969-2.382-2.995-5.361a.945.945 0 0 0-.946-.936.984.984 0 0 0-.608.217c-2.526 2.13-5.825 2.572-8.82 1.178-2.866-1.325-4.723-3.967-4.723-6.73a.945.945 0 0 0-1.858-.233c-.01.026-.73 2.728-3.108 3.845-1.789.84-4.116.606-6.903-.701a.956.956 0 0 0-.902.06.96.96 0 0 0-.443.797c0 2.962-.825 5.334-2.205 6.33-.79.563-1.746.667-2.84.303-.546-.181-.911-.493-1.145-.995-.721-1.568.086-4.348.468-5.292a.938.938 0 0 0-.425-1.169c-3.968-2.208-4.454-6.235-3.169-9.249 1.259-2.97 4.454-5.386 8.734-4.087a.945.945 0 0 0 .877-.182.93.93 0 0 0 .33-.823c-.426-3.776 2.873-5.863 5.825-6.512 3.933-.866 8.622.372 9.959 4.399a.93.93 0 0 0 .746.632.933.933 0 0 0 .903-.363c2.665-3.586 6.92-3.776 9.759-2.451 2.44 1.152 4.688 3.836 3.672 7.932a.952.952 0 0 0 .139.78.996.996 0 0 0 .686.39c2.517.225 4.228 1.61 4.68 3.801z" fill="#C9FFE6"/><path fill-rule="evenodd" clip-rule="evenodd" d="M11.449 31.55c1.371-1.264 2.231-3.403 2.448-6.062 2.787 1.048 5.218 1.1 7.24.139 1.26-.598 2.163-1.49 2.796-2.373.877 2.33 2.753 4.347 5.27 5.516 3.134 1.455 6.546 1.273 9.412-.433.2 1.36.616 2.39 1.137 3.17l5.504 2.347c1.815-.312 3.525-1.42 4.393-3.014.547-1.022 1.45-3.585-1.207-6.599 2.023-1.637 3.022-4.4 2.466-7.084-.564-2.693-2.517-4.564-5.322-5.144.556-3.888-1.294-7.378-4.905-9.076-3.16-1.49-7.762-1.437-11.052 1.845C27.423.842 22.388-.362 18.108.573c-3.63.797-7.093 3.317-7.328 7.257-4.757-.822-8.352 2.113-9.767 5.456-1.493 3.49-1.032 8.374 3.309 11.215-.426 1.325-1.077 4.027-.157 6.019a3.726 3.726 0 0 0 2.257 1.991c.122.044.234.078.356.104l4.67-1.065zm-5.105-7.11c-.382.944-1.19 3.724-.469 5.292.234.502.599.814 1.146.995 1.094.364 2.049.26 2.839-.303 1.38-.995 2.205-3.368 2.205-6.33a.96.96 0 0 1 .443-.797.956.956 0 0 1 .903-.06c2.787 1.307 5.114 1.541 6.902.701 2.379-1.117 3.1-3.819 3.109-3.845a.942.942 0 0 1 1.857.234c0 2.762 1.858 5.404 4.723 6.729 2.995 1.394 6.294.952 8.82-1.178a.983.983 0 0 1 .608-.217.945.945 0 0 1 .946.935c.027 2.98 1.086 4.885 2.996 5.361 1.71.425 3.785-.476 4.61-2.009.851-1.567.27-3.395-1.64-5.17a.928.928 0 0 1-.296-.805.945.945 0 0 1 .486-.71c1.936-1.048 2.996-3.456 2.527-5.725-.45-2.19-2.162-3.576-4.68-3.802a.996.996 0 0 1-.686-.39.953.953 0 0 1-.139-.779c1.016-4.096-1.232-6.78-3.672-7.932-2.839-1.325-7.093-1.135-9.758 2.45a.933.933 0 0 1-.903.364.932.932 0 0 1-.747-.632c-1.337-4.027-6.025-5.265-9.958-4.4-2.952.65-6.251 2.737-5.826 6.513a.931.931 0 0 1-.329.823.946.946 0 0 1-.877.182c-4.28-1.3-7.476 1.117-8.734 4.087-1.285 3.014-.8 7.04 3.168 9.25.417.224.6.727.426 1.168z" fill="#24E28B"/><path d="M29.938 48.617c16.222 0 14.107-8.233 14.107-8.233l-.118-14.359c0-8.31-8.324-17.301-18.573-17.301S6.782 17.716 6.782 26.025v12.037" stroke="#B5FF00" stroke-width="2" stroke-linecap="round" stroke-linejoin="round"/><path d="M6.003 31.291c-2.486 0-4.849 2.402-4.849 4.894v1.57c0 2.493 2.363 4.82 4.85 4.82h.778V31.292h-.779z" fill="#F0FFCA"/><path clip-rule="evenodd" d="M6.003 42.575h.78V31.291h-.78c-2.486 0-4.849 2.402-4.849 4.894v1.57c0 2.493 2.363 4.82 4.85 4.82z" stroke="#B5FF00" stroke-width="2" stroke-linecap="round" stroke-linejoin="round"/><path d="M43.927 31.291v11.285h.82c2.645 0 4.808-2.17 4.808-4.821v-1.602c0-2.674-2.182-4.861-4.849-4.861h-.779z" fill="#fff"/><path fill-rule="evenodd" clip-rule="evenodd" d="M44.746 42.575h-.819V31.291h.78c2.666 0 4.848 2.189 4.848 4.862v1.602c0 2.65-2.163 4.82-4.809 4.82z" fill="#F0FFCA" stroke="#B5FF00" stroke-width="2" stroke-linecap="round" stroke-linejoin="round"/><path d="M23.666 45.96a2.254 2.254 0 0 0-2.251 2.258v1.128a2.254 2.254 0 0 0 2.25 2.257h3.378a2.254 2.254 0 0 0 2.251-2.257v-1.128a2.253 2.253 0 0 0-2.251-2.257h-3.377z" fill="#fff"/><path fill-rule="evenodd" clip-rule="evenodd" d="M27.043 51.603h-3.377a2.253 2.253 0 0 1-2.251-2.257v-1.129a2.253 2.253 0 0 1 2.251-2.256h3.377a2.253 2.253 0 0 1 2.251 2.256v1.129a2.253 2.253 0 0 1-2.251 2.257z" fill="#F0FFCA" stroke="#B5FF00" stroke-width="2" stroke-linecap="round" stroke-linejoin="round"/></svg>