<svg width="95" height="92" viewBox="0 0 95 92" fill="none" xmlns="http://www.w3.org/2000/svg"><path d="M39.898 77.994V13.971m27.927 16.006l-55.3 32.011m-.001-32.011l55.3 32.011" stroke="#24E28B" stroke-width="3" stroke-linecap="round" stroke-linejoin="round"/><path fill-rule="evenodd" clip-rule="evenodd" d="M46.257 7.873c0 3.368-2.723 6.098-6.082 6.098-3.358 0-6.081-2.73-6.081-6.098 0-3.367 2.723-6.097 6.081-6.097 3.359 0 6.082 2.73 6.082 6.097z" fill="#fff"/><path clip-rule="evenodd" d="M46.257 7.873c0 3.368-2.723 6.098-6.082 6.098-3.358 0-6.081-2.73-6.081-6.098 0-3.367 2.723-6.097 6.081-6.097 3.359 0 6.082 2.73 6.082 6.097z" stroke="#24E28B" stroke-width="3" stroke-linecap="round" stroke-linejoin="round"/><path fill-rule="evenodd" clip-rule="evenodd" d="M78.184 26.166c0 3.367-2.723 6.097-6.081 6.097-3.358 0-6.081-2.73-6.081-6.097 0-3.368 2.722-6.098 6.08-6.098 3.36 0 6.082 2.73 6.082 6.098z" fill="#fff"/><path fill-rule="evenodd" clip-rule="evenodd" d="M92.877 20.294c0 8.18-6.615 14.811-14.773 14.811s-14.772-6.631-14.772-14.81c0-8.18 6.614-14.812 14.772-14.812 8.158 0 14.773 6.632 14.773 14.811z" fill="#F0FFCA" stroke="#B5FF00" stroke-width="3" stroke-linecap="round" stroke-linejoin="round"/><path fill-rule="evenodd" clip-rule="evenodd" d="M78.184 65.8c0 3.366-2.723 6.097-6.081 6.097-3.358 0-6.081-2.73-6.081-6.098 0-3.367 2.722-6.097 6.08-6.097 3.36 0 6.082 2.73 6.082 6.097z" fill="#fff"/><path clip-rule="evenodd" d="M78.184 65.8c0 3.366-2.723 6.097-6.081 6.097-3.358 0-6.081-2.73-6.081-6.098 0-3.367 2.722-6.097 6.08-6.097 3.36 0 6.082 2.73 6.082 6.097z" stroke="#24E28B" stroke-width="3" stroke-linecap="round" stroke-linejoin="round"/><path fill-rule="evenodd" clip-rule="evenodd" d="M14.329 65.8c0 3.366-2.723 6.097-6.082 6.097-3.358 0-6.081-2.73-6.081-6.098 0-3.367 2.723-6.097 6.081-6.097 3.359 0 6.082 2.73 6.082 6.097z" fill="#fff"/><path clip-rule="evenodd" d="M14.329 65.8c0 3.366-2.723 6.097-6.082 6.097-3.358 0-6.081-2.73-6.081-6.098 0-3.367 2.723-6.097 6.081-6.097 3.359 0 6.082 2.73 6.082 6.097z" stroke="#24E28B" stroke-width="3" stroke-linecap="round" stroke-linejoin="round"/><path fill-rule="evenodd" clip-rule="evenodd" d="M14.329 26.166c0 3.367-2.723 6.097-6.082 6.097-3.358 0-6.081-2.73-6.081-6.097 0-3.368 2.723-6.098 6.081-6.098 3.359 0 6.082 2.73 6.082 6.098z" fill="#fff"/><path clip-rule="evenodd" d="M14.329 26.166c0 3.367-2.723 6.097-6.082 6.097-3.358 0-6.081-2.73-6.081-6.097 0-3.368 2.723-6.098 6.081-6.098 3.359 0 6.082 2.73 6.082 6.098z" stroke="#24E28B" stroke-width="3" stroke-linecap="round" stroke-linejoin="round"/><path fill-rule="evenodd" clip-rule="evenodd" d="M40.175 90.189c-3.358 0-6.081-2.73-6.081-6.097 0-3.368 2.723-6.098 6.081-6.098 3.359 0 6.082 2.73 6.082 6.097 0 3.368-2.723 6.098-6.082 6.098z" fill="#fff" stroke="#24E28B" stroke-width="3"/><path fill-rule="evenodd" clip-rule="evenodd" d="M52.48 29.976a20.845 20.845 0 0 1 3.663 3.52 20.587 20.587 0 0 1 2.9 4.762c2.877 6.6 2.212 14.5-2.433 20.642-6.88 9.097-19.879 10.894-29.039 4.016s-11.01-19.826-4.13-28.923c3.462-4.579 8.475-7.308 13.768-8.014a20.899 20.899 0 0 1 6.134.09c1.457.24 2.898.634 4.298 1.19" fill="#fff"/><path fill-rule="evenodd" clip-rule="evenodd" d="M26.973 58.145v2.872A20.389 20.389 0 0 0 40.04 65.75c4.973 0 9.508-1.794 13.038-4.732v-2.872c0-4.49-8.76-5.744-13.053-5.744-4.292 0-13.052 1.254-13.052 5.744z" fill="#F0FFCA"/><path clip-rule="evenodd" d="M40.025 47.958c3.217 0 5.833-2.494 5.833-5.57v-3.301c0-3.076-2.616-5.57-5.833-5.57-3.216 0-5.832 2.494-5.832 5.57v3.3c0 3.077 2.616 5.57 5.832 5.57z" stroke="#B5FF00" stroke-width="3"/><path d="M53.099 62.27l-.033-3.944c0-4.632-8.76-5.925-13.053-5.925-4.292 0-13.052 1.293-13.052 5.925l-.008 3.944" stroke="#B5FF00" stroke-width="3"/><path d="M52.48 29.976a20.848 20.848 0 0 1 3.663 3.52 20.587 20.587 0 0 1 2.9 4.762c2.877 6.6 2.212 14.5-2.433 20.642-6.88 9.097-19.879 10.894-29.039 4.016s-11.01-19.826-4.13-28.923c3.462-4.579 8.475-7.308 13.768-8.014a20.899 20.899 0 0 1 6.134.09c1.457.24 2.898.634 4.298 1.19" stroke="#24E28B" stroke-width="3" stroke-linecap="round" stroke-linejoin="round"/><path d="M77.455 11.59v2.78m0 12.253v2.779m4.834-13.707c-1.32-.426-2.51-.825-3.705-.955-6.435-.702-7.261 5.586-.41 5.566 6.658-.02 6.03 6.274-.42 5.567-1.195-.132-2.385-.534-3.696-.956" stroke="#B5FF00" stroke-width="3" stroke-linecap="round" stroke-linejoin="round"/></svg>