<svg width="76" height="90" viewBox="0 0 76 70" fill="none" xmlns="http://www.w3.org/2000/svg"><rect x="1.806" y="9.038" width="58.143" height="45.037" rx="1.85" stroke="#24E28B" stroke-width="2.3"/><rect x="1.806" y="9.038" width="58.143" height="9.727" rx="1.85" fill="#C9FFE6" stroke="#24E28B" stroke-width="2.3"/><mask id="a" fill="#fff"><rect x="9.291" y="24.139" width="10.485" height="10.485" rx="1"/></mask><rect x="9.291" y="24.139" width="10.485" height="10.485" rx="1" stroke="#24E28B" stroke-width="4.6" mask="url(#a)"/><mask id="b" fill="#fff"><rect x="42.597" y="24.139" width="10.485" height="10.485" rx="1"/></mask><rect x="42.597" y="24.139" width="10.485" height="10.485" rx="1" stroke="#24E28B" stroke-width="4.6" mask="url(#b)"/><mask id="c" fill="#fff"><rect x="25.943" y="24.139" width="10.485" height="10.485" rx="1"/></mask><rect x="25.943" y="24.139" width="10.485" height="10.485" rx="1" stroke="#24E28B" stroke-width="4.6" mask="url(#c)"/><mask id="d" fill="#fff"><rect x="9.291" y="37.708" width="10.485" height="10.485" rx="1"/></mask><rect x="9.291" y="37.708" width="10.485" height="10.485" rx="1" stroke="#24E28B" stroke-width="4.6" mask="url(#d)"/><mask id="e" fill="#fff"><rect x="42.597" y="37.708" width="10.485" height="10.485" rx="1"/></mask><rect x="42.597" y="37.708" width="10.485" height="10.485" rx="1" stroke="#24E28B" stroke-width="4.6" mask="url(#e)"/><mask id="f" fill="#fff"><rect x="25.943" y="37.708" width="10.485" height="10.485" rx="1"/></mask><rect x="25.943" y="37.708" width="10.485" height="10.485" rx="1" stroke="#24E28B" stroke-width="4.6" mask="url(#f)"/><circle cx="56.043" cy="49.489" r="18.464" fill="#F0FFCA" stroke="#B5FF00" stroke-width="2.3"/><circle cx="56.043" cy="49.489" r="1.748" stroke="#B5FF00" stroke-width="2.3"/><path d="M57.4 48.133l6.476-6.477m-6.015 9.714l8.635 8.635M56.043 35.18v4.01m0 21.432v4.01m14.726-15.143h-4.01m-21.433 0h-4.009" stroke="#B5FF00" stroke-width="2.3" stroke-linecap="round" stroke-linejoin="round"/><path d="M13.3 13.13h-2.238a1 1 0 0 1-1-1V2.259a1 1 0 0 1 1-1h3.243a1 1 0 0 1 1 1v6.247m15.627 4.624h-2.238a1 1 0 0 1-1-1V2.259a1 1 0 0 1 1-1h3.243a1 1 0 0 1 1 1v6.247m15.627 4.624h-2.238a1 1 0 0 1-1-1V2.259a1 1 0 0 1 1-1h3.243a1 1 0 0 1 1 1v6.247" stroke="#24E28B" stroke-width="2.3" stroke-linecap="round"/></svg>