<svg width="67" height="76" viewBox="0 0 67 56" fill="none" xmlns="http://www.w3.org/2000/svg"><path fill-rule="evenodd" clip-rule="evenodd" d="M12.15 54.224h-7.2a1.714 1.714 0 0 1-1.712-1.695c.175.06.348.124.52.195l.176.072.176.072a9.43 9.43 0 0 0 3.574.7c1.25 0 2.5-.245 3.663-.736v-.02a.221.221 0 0 0 .07-.018 8.939 8.939 0 0 1 2.445-.667v.384c0 .945-.769 1.713-1.713 1.713zm-4.466-1.068a8.98 8.98 0 0 1-3.405-.667l-.177-.072-.177-.073a9.315 9.315 0 0 0-.687-.25v-2.865c.174.06.348.124.52.194l.176.073.176.072a9.43 9.43 0 0 0 3.574.7c1.25 0 2.5-.245 3.663-.736v-.02a.219.219 0 0 0 .07-.018 8.938 8.938 0 0 1 2.445-.667v2.884a9.355 9.355 0 0 0-2.533.67v.02a.206.206 0 0 0-.07.017 8.996 8.996 0 0 1-3.575.738zm0-3.3c-1.16 0-2.32-.222-3.405-.668l-.177-.072-.177-.072a9.36 9.36 0 0 0-.687-.251v-2.864c.174.059.348.124.52.194l.176.072.176.073a9.43 9.43 0 0 0 3.574.7c1.25 0 2.5-.246 3.663-.737v-.02a.221.221 0 0 0 .07-.017 8.953 8.953 0 0 1 2.445-.668v2.885a9.355 9.355 0 0 0-2.533.67v.02a.209.209 0 0 0-.07.017 8.997 8.997 0 0 1-3.575.738zm0-3.3c-1.16 0-2.32-.223-3.405-.668l-.177-.072-.177-.073a9.27 9.27 0 0 0-.687-.25v-2.864c.174.059.348.124.52.194l.176.072.176.072a9.43 9.43 0 0 0 3.574.7c1.25 0 2.5-.245 3.663-.736v-.02a.22.22 0 0 0 .07-.018 8.938 8.938 0 0 1 2.445-.667v2.884a9.451 9.451 0 0 0-.83.137h.83-.831c-.58.123-1.15.3-1.702.533v.02a.206.206 0 0 0-.07.018 8.994 8.994 0 0 1-3.575.738zm0-3.3c-1.16 0-2.32-.223-3.405-.668l-.177-.073-.177-.072a9.5 9.5 0 0 0-.687-.25v-2.865c.174.06.348.124.52.194l.176.072.176.073a9.43 9.43 0 0 0 3.574.7c1.25 0 2.5-.246 3.663-.736v-.02a.218.218 0 0 0 .07-.018 8.938 8.938 0 0 1 2.445-.668v2.885a9.325 9.325 0 0 0-2.533.67v.02a.216.216 0 0 0-.07.017 8.984 8.984 0 0 1-3.574.738zm0-3.301a8.98 8.98 0 0 1-3.405-.667l-.177-.073-.177-.072a9.454 9.454 0 0 0-.687-.251v-2.864c.174.059.348.124.52.194l.176.072.176.073a9.43 9.43 0 0 0 3.574.7c1.25 0 2.5-.246 3.663-.737v-.02a.22.22 0 0 0 .07-.018 8.935 8.935 0 0 1 2.445-.667v2.885a9.333 9.333 0 0 0-2.533.67v.02a.216.216 0 0 0-.07.017 8.982 8.982 0 0 1-3.574.738zm0-3.3c-1.16 0-2.32-.223-3.405-.668l-.177-.072-.177-.073a9.5 9.5 0 0 0-.687-.25v-2.865c.174.06.348.125.52.195l.176.072.176.072a9.43 9.43 0 0 0 3.574.7c1.25 0 2.5-.245 3.663-.736v-.02a.22.22 0 0 0 .07-.018 8.938 8.938 0 0 1 2.445-.667v2.884a9.325 9.325 0 0 0-2.533.67v.02a.216.216 0 0 0-.07.018 8.984 8.984 0 0 1-3.574.737zm0-3.3c-1.16 0-2.32-.223-3.405-.668l-.177-.073-.177-.072a9.454 9.454 0 0 0-.687-.25v-2.865c.174.06.348.124.52.195l.176.071.176.073a9.43 9.43 0 0 0 3.574.7c1.25 0 2.5-.246 3.663-.737v-.02a.22.22 0 0 0 .07-.017 8.939 8.939 0 0 1 2.445-.668v2.885a9.333 9.333 0 0 0-2.533.67v.02a.216.216 0 0 0-.07.017 8.982 8.982 0 0 1-3.574.738zm0-3.301a8.98 8.98 0 0 1-3.405-.667l-.177-.073-.177-.072a9.5 9.5 0 0 0-.687-.251v-1.175c0-.582.29-1.097.734-1.407l.138.057a9.43 9.43 0 0 0 3.574.7c1.25 0 2.5-.246 3.663-.737v-.02a.22.22 0 0 0 .07-.018c.25-.108.505-.205.763-.29.93.017 1.682.78 1.682 1.715v.793a9.426 9.426 0 0 0-.83.137h.83-.83a9.31 9.31 0 0 0-1.703.532v.02a.216.216 0 0 0-.07.018 8.984 8.984 0 0 1-3.574.738zm6.178 18.494v.279a8.938 8.938 0 0 0-2.445.667.219.219 0 0 1-.07.018v.02a9.428 9.428 0 0 1-3.663.737 9.43 9.43 0 0 1-3.574-.7l-.176-.073-.176-.073a9.134 9.134 0 0 0-.52-.194v-.436c.231.074.46.158.687.25l.177.073.177.072a8.978 8.978 0 0 0 3.405.668 8.997 8.997 0 0 0 3.575-.738.209.209 0 0 1 .07-.018v-.02a9.463 9.463 0 0 1 2.533-.67v.138zm0 3.3v.279a8.939 8.939 0 0 0-2.445.667.221.221 0 0 1-.07.018v.02a9.428 9.428 0 0 1-3.663.737 9.43 9.43 0 0 1-3.574-.7l-.176-.073-.176-.072a9.116 9.116 0 0 0-.52-.195v-.436c.231.074.46.158.687.251l.177.073.177.072a8.978 8.978 0 0 0 3.405.667 8.996 8.996 0 0 0 3.575-.738.206.206 0 0 1 .07-.017v-.02a9.426 9.426 0 0 1 2.533-.67v.137zm0-19.802v.279a8.938 8.938 0 0 0-2.445.667.22.22 0 0 1-.07.018v.02a9.435 9.435 0 0 1-3.663.736 9.43 9.43 0 0 1-3.574-.7l-.176-.072-.176-.072a8.911 8.911 0 0 0-.52-.195v-.436c.231.075.46.158.687.251l.177.072.177.073a8.983 8.983 0 0 0 3.406.667 8.982 8.982 0 0 0 3.574-.738.216.216 0 0 1 .07-.017v-.02a9.426 9.426 0 0 1 2.533-.67v.137zm0 3.3v.28a8.935 8.935 0 0 0-2.445.666.22.22 0 0 1-.07.018v.02a9.433 9.433 0 0 1-3.663.737 9.43 9.43 0 0 1-3.574-.7l-.176-.072-.176-.073a8.911 8.911 0 0 0-.52-.194v-.436a9.5 9.5 0 0 1 .687.25l.177.073.177.072a8.983 8.983 0 0 0 3.406.667 8.984 8.984 0 0 0 3.574-.737.216.216 0 0 1 .07-.018v-.02a9.426 9.426 0 0 1 2.533-.67v.137zm0 3.3v.28a8.938 8.938 0 0 0-2.445.667.218.218 0 0 1-.07.017v.02a9.435 9.435 0 0 1-3.663.737 9.43 9.43 0 0 1-3.574-.7l-.176-.072-.176-.072a8.838 8.838 0 0 0-.52-.195v-.436c.231.074.46.158.687.25l.177.073.177.073a8.985 8.985 0 0 0 3.406.667 8.982 8.982 0 0 0 3.574-.738.216.216 0 0 1 .07-.018v-.02a9.426 9.426 0 0 1 2.533-.67v.138zm0 3.301v.279a8.938 8.938 0 0 0-2.445.667.22.22 0 0 1-.07.018v.02a9.433 9.433 0 0 1-3.663.736 9.43 9.43 0 0 1-3.574-.7l-.176-.072-.176-.072a8.911 8.911 0 0 0-.52-.194v-.437a9.5 9.5 0 0 1 .687.251l.177.072.177.073a8.985 8.985 0 0 0 3.406.667 8.984 8.984 0 0 0 3.574-.738.216.216 0 0 1 .07-.017v-.02a9.463 9.463 0 0 1 2.533-.67v.137zm0 3.3v.28a8.953 8.953 0 0 0-2.445.667.221.221 0 0 1-.07.017v.02a9.428 9.428 0 0 1-3.663.737 9.43 9.43 0 0 1-3.574-.7l-.176-.072-.176-.073a9.134 9.134 0 0 0-.52-.194v-.436c.231.074.46.158.687.25l.177.073.177.072a8.981 8.981 0 0 0 3.405.668 8.994 8.994 0 0 0 3.575-.738.206.206 0 0 1 .07-.018v-.02a9.451 9.451 0 0 1 2.533-.67v.137zm-2.514-19.146h.83a8.745 8.745 0 0 0-.762.29.22.22 0 0 1-.07.018v.02a9.433 9.433 0 0 1-3.663.737 9.43 9.43 0 0 1-3.574-.7l-.138-.057c.153-.107.325-.19.51-.243a8.993 8.993 0 0 0 3.203.587 8.989 8.989 0 0 0 3.37-.652h.293zm2.514 2.645v.278a8.939 8.939 0 0 0-2.445.668.22.22 0 0 1-.07.017v.02a9.433 9.433 0 0 1-3.663.737 9.43 9.43 0 0 1-3.574-.7l-.176-.072-.176-.072a8.911 8.911 0 0 0-.52-.195v-.436a9.5 9.5 0 0 1 .687.25l.177.073.177.073a8.983 8.983 0 0 0 3.406.667 8.984 8.984 0 0 0 3.574-.738.216.216 0 0 1 .07-.018v-.02a9.426 9.426 0 0 1 2.533-.67v.138z" fill="#C9FFE6"/><path fill-rule="evenodd" clip-rule="evenodd" d="M50.232 34.126c-.837-.95-2.047-1.564-3.409-1.564h-4.975a4.567 4.567 0 0 0-4.56 4.564c0 1.238.5 2.36 1.303 3.182-1.466.76-2.48 2.275-2.48 4.038 0 1.024.351 1.961.923 2.724-2.205.32-3.908 2.205-3.908 4.497 0 .994.327 1.907.868 2.657h-6.056c-4.76 0-9.286-2.265-12.172-6.075V29.686a15.394 15.394 0 0 1 5.225-4.381c1.188-.61 2.323-1.464 3.573-2.692 3.035-2.984 4.768-7.188 4.756-11.533v-.327c0-.83.382-1.598 1.048-2.11.67-.513 1.505-.673 2.341-.446 1.114.3 1.922 1.43 1.92 2.697l.008.85a77.342 77.342 0 0 1-.96 12.852 39.25 39.25 0 0 0-.396 3.187l-.548 7.043c0 4.155-3.378 7.536-7.53 7.536a.953.953 0 0 0 0 1.906c5.202 0 9.435-4.236 9.432-9.368l.476-6.09h27.61a2.66 2.66 0 0 1 2.655 2.659 2.659 2.659 0 0 1-2.655 2.657H50.23z" fill="#F0FFCA"/><path fill-rule="evenodd" clip-rule="evenodd" d="M61.732 33.466h-12.49c-.835-.95-2.045-1.564-3.407-1.564H40.86a4.567 4.567 0 0 0-4.56 4.563c0 1.238.499 2.36 1.302 3.183-1.466.76-2.48 2.275-2.48 4.038a4.52 4.52 0 0 0 .923 2.724c-2.204.32-3.908 2.205-3.908 4.497 0 .994.328 1.907.868 2.657H26.95c-4.76 0-9.286-2.265-12.172-6.075V29.026a15.394 15.394 0 0 1 5.226-4.381c1.187-.61 2.322-1.465 3.572-2.692 3.035-2.984 4.768-7.188 4.756-11.533v-.327c0-.83.382-1.598 1.048-2.11a2.64 2.64 0 0 1 2.341-.446c1.114.3 1.922 1.43 1.92 2.697l.008.85a77.331 77.331 0 0 1-.96 12.852 39.256 39.256 0 0 0-.395 3.187l-.549 7.043c0 4.155-3.378 7.536-7.53 7.536a.953.953 0 0 0 0 1.906c5.202 0 9.435-4.236 9.432-9.368l.476-6.09h27.61a2.66 2.66 0 0 1 2.656 2.659 2.659 2.659 0 0 1-2.656 2.657zm-15.897 5.656H40.86a2.659 2.659 0 0 1-2.656-2.657 2.659 2.659 0 0 1 2.656-2.657h4.975a2.659 2.659 0 0 1 2.654 2.657 2.659 2.659 0 0 1-2.654 2.657zm-8.809 4.564a2.659 2.659 0 0 1 2.656-2.657h4.967a2.659 2.659 0 0 1 0 5.315h-4.967a2.66 2.66 0 0 1-2.656-2.658zm-.33 9.878a2.659 2.659 0 0 1-2.654-2.657 2.659 2.659 0 0 1 2.655-2.657h4.895a2.659 2.659 0 0 1 2.655 2.657 2.659 2.659 0 0 1-2.655 2.657h-4.895zm25.036-27.32H34.296a42.6 42.6 0 0 1 .272-2.007 79.2 79.2 0 0 0 .984-13.17l-.007-.84c.002-2.14-1.367-4.002-3.33-4.53a4.568 4.568 0 0 0-3.994.773 4.538 4.538 0 0 0-1.795 3.624v.33c.011 3.836-1.515 7.543-4.186 10.168-1.107 1.089-2.095 1.838-3.104 2.355a17.316 17.316 0 0 0-6.08 5.202.95.95 0 0 0-.183.562v19.094c0 .2.064.398.182.56 3.232 4.45 8.427 7.105 13.894 7.105h14.723a4.567 4.567 0 0 0 4.56-4.563 4.52 4.52 0 0 0-.924-2.723c2.205-.32 3.909-2.205 3.909-4.498 0-1.239-.5-2.36-1.303-3.184 1.465-.76 2.48-2.275 2.48-4.037 0-.379-.06-.74-.147-1.093h11.485a4.567 4.567 0 0 0 4.56-4.563 4.567 4.567 0 0 0-4.56-4.565z" fill="#B5FF00"/><path fill-rule="evenodd" clip-rule="evenodd" d="M12.873 51.851c0 .944-.769 1.713-1.713 1.713h-7.2a1.714 1.714 0 0 1-1.712-1.713V27.156c0-.946.768-1.715 1.712-1.715h7.2c.944 0 1.713.769 1.713 1.715V51.85zM11.16 23.535h-7.2a3.623 3.623 0 0 0-3.616 3.62v24.696a3.622 3.622 0 0 0 3.616 3.62h7.2a3.622 3.622 0 0 0 3.617-3.62V27.156a3.624 3.624 0 0 0-3.617-3.621z" fill="#24E28B"/><path fill-rule="evenodd" clip-rule="evenodd" d="M7.56 46.47a.953.953 0 0 0-.952.954v2.956a.953.953 0 0 0 1.904 0v-2.956a.953.953 0 0 0-.952-.953zM52.246.686a.95.95 0 0 0-1.2.61l-2.3 7.017a.952.952 0 1 0 1.809.592l2.3-7.017a.952.952 0 0 0-.609-1.202zm9.012 17.828l-7.01-2.3a.953.953 0 1 0-.594 1.811l7.01 2.3a.952.952 0 0 0 .594-1.811zm-7.695-5.589a.947.947 0 0 0 .43-.103l6.582-3.334a.954.954 0 0 0-.86-1.701l-6.583 3.335a.954.954 0 0 0 .43 1.803zM42.027 1.979a.952.952 0 1 0-1.7.86l3.331 6.59a.952.952 0 1 0 1.7-.86l-3.331-6.59z" fill="#24E28B"/></svg>