<svg width="56" height="90" viewBox="0 0 56 84" fill="none" xmlns="http://www.w3.org/2000/svg"><path d="M1.67 1.994h52.468v80.001H1.67z"/><path fill-rule="evenodd" clip-rule="evenodd" d="M11.52 29.182H7.707v13.205H1.67l11.108 11.057 11.108-11.057h-6.23V29.182h-2.324" fill="#fff"/><path d="M11.52 29.182H7.707v13.205H1.67l11.108 11.057 11.108-11.057h-6.23V29.182h-2.324" stroke="#24E28B" stroke-width="3" stroke-linecap="round" stroke-linejoin="round"/><path fill-rule="evenodd" clip-rule="evenodd" d="M14.302 73.2l8.837 8.795 8.836-8.796h-4.37v-7.328l-8.843-8.888V73.2h-4.46z" fill="#fff" stroke="#24E28B" stroke-width="3" stroke-linecap="round" stroke-linejoin="round"/><path d="M12.998 24.775V13.77m0-3.687v-2.2m0-3.688V1.994" stroke="#24E28B" stroke-width="3" stroke-linecap="round"/><path d="M35.93 31.487V19.382m0-3.687v-2.2m0-3.688V7.606" stroke="#B5FF00" stroke-width="3" stroke-linecap="round"/><path d="M7.265 78.373V67.368m0-3.687v-2.2m0-3.688v-2.2" stroke="#24E28B" stroke-width="3" stroke-linecap="round"/><path d="M42.704 27.528V16.524" stroke="#B5FF00" stroke-width="3" stroke-linecap="round"/><path d="M42.704 12.837v-2.201" stroke="#B5FF00" stroke-width="3" stroke-linecap="round" stroke-linejoin="round"/><path fill-rule="evenodd" clip-rule="evenodd" d="M34.847 35.784h-5.03V51.19h-8.423l16.372 16.297L54.137 51.19h-8.844V35.784H38.66" fill="#F0FFCA"/><path d="M34.847 35.784h-5.03V51.19h-8.423l16.372 16.297L54.137 51.19h-8.844V35.784H38.66" stroke="#B5FF00" stroke-width="3" stroke-linecap="round" stroke-linejoin="round"/></svg>