<svg width="73" height="90" viewBox="0 0 73 90" fill="none" xmlns="http://www.w3.org/2000/svg"><path d="M2.357 2.248h68.287v85.493H2.357z"/><path d="M60.407 66.023l2.631-5.686 5.695 2.607" stroke="#B5FF00" stroke-width="3" stroke-linecap="round" stroke-linejoin="round"/><path d="M40.554 76.067c3.723 6.448 11.968 8.657 18.415 4.934 6.448-3.722 8.657-11.967 4.934-18.414m-50.631-37.56l-2.125 5.893-5.9-2.1" stroke="#B5FF00" stroke-width="3" stroke-linecap="round" stroke-linejoin="round"/><path d="M32.174 13.29c-4.27-6.098-12.676-7.58-18.775-3.31-6.098 4.27-7.58 12.676-3.31 18.775" stroke="#B5FF00" stroke-width="3" stroke-linecap="round" stroke-linejoin="round"/><path fill-rule="evenodd" clip-rule="evenodd" d="M56.13 51.09a15.923 15.923 0 0 1-3.567 1.524 15.724 15.724 0 0 1-4.214.617c-5.498.053-10.853-2.772-13.785-7.87-4.342-7.55-1.726-17.225 5.842-21.612 7.57-4.387 17.223-1.824 21.566 5.727a15.743 15.743 0 0 1 1.524 12.07 15.959 15.959 0 0 1-1.894 4.285 15.82 15.82 0 0 1-2.118 2.667" fill="#C9FFE6"/><path d="M56.13 51.09a15.923 15.923 0 0 1-3.567 1.524 15.724 15.724 0 0 1-4.214.617c-5.498.053-10.853-2.772-13.785-7.87-4.342-7.55-1.726-17.225 5.842-21.612 7.57-4.387 17.223-1.824 21.566 5.727a15.743 15.743 0 0 1 1.524 12.07 15.959 15.959 0 0 1-1.894 4.285 15.82 15.82 0 0 1-2.118 2.667M47.565 26.459v3.389m0 14.944v3.389" stroke="#24E28B" stroke-width="3" stroke-linecap="round" stroke-linejoin="round"/><path d="M53.268 31.465c-1.564-.52-2.977-1.006-4.393-1.165-7.63-.857-8.61 6.812-.486 6.789 7.894-.026 7.15 7.65-.499 6.788-1.416-.16-2.826-.651-4.381-1.165" stroke="#24E28B" stroke-width="3" stroke-linecap="round" stroke-linejoin="round"/><path fill-rule="evenodd" clip-rule="evenodd" d="M34.562 68.883a15.918 15.918 0 0 1-3.568 1.525 15.724 15.724 0 0 1-4.213.617c-5.499.054-10.853-2.772-13.785-7.87-4.343-7.55-1.727-17.225 5.842-21.612 7.569-4.387 17.222-1.824 21.565 5.727a15.743 15.743 0 0 1 1.525 12.07 15.96 15.96 0 0 1-1.894 4.285 15.825 15.825 0 0 1-2.118 2.667" fill="#fff"/><path d="M34.562 68.883a15.918 15.918 0 0 1-3.568 1.525 15.724 15.724 0 0 1-4.213.617c-5.499.054-10.853-2.772-13.785-7.87-4.343-7.55-1.727-17.225 5.842-21.612 7.569-4.387 17.222-1.824 21.565 5.727a15.743 15.743 0 0 1 1.525 12.07 15.96 15.96 0 0 1-1.894 4.285 15.825 15.825 0 0 1-2.118 2.667m-11.92-22.039v3.389m0 14.945v3.388" stroke="#24E28B" stroke-width="3" stroke-linecap="round" stroke-linejoin="round"/><path d="M31.699 49.26c-1.564-.52-2.977-1.007-4.393-1.166-7.63-.856-8.61 6.813-.486 6.789 7.894-.026 7.15 7.65-.499 6.788-1.416-.16-2.826-.65-4.381-1.165" stroke="#24E28B" stroke-width="3" stroke-linecap="round" stroke-linejoin="round"/></svg>